<svg xmlns="http://www.w3.org/2000/svg" viewBox="0 0 180.04 106.01"><defs><style>.cls-1,.cls-2{fill:#ed7121;}.cls-2{stroke:#ed7121;stroke-miterlimit:10;stroke-width:0.95px;}</style></defs><g id="Layer_2" data-name="Layer 2"><g id="Layer_1-2" data-name="Layer 1"><path class="cls-1" d="M0,48.29C5,32,7.89,22.33,12.72,6.41c1-3.3,2.91-6.41,6.4-6.41s5.41,3.11,6.41,6.41C30.36,22.33,33.32,32,38.25,48.29H30.93c-2-6.6-3.63-12.1-5.16-17.36H9.8c-.24,7.94.1,15.16.62,17.36ZM25.53,30.21c-2.25-7.5-4.4-14.62-7.32-23.8-.33-1.06-.86-1.77-1.91-1.77-4.3,0-6,13.48-6.45,25.57Z"/><path class="cls-2" d="M42.07,48.29v-.48c4.11,0,4.39-3.4,4.39-12.81V27.73c0-9.42-.28-12.81-4.39-12.81v-.48h5.44c3.93,0,9.9-1,12.63-1,2.29,0,5.83.19,8.6,2,1.53,0,6.22-2,13.68-2,4.25,0,12.76.62,12.76,10.66V35c0,9.41.29,12.81,4.4,12.81v.48H86.67v-.48c4.11,0,4.4-3.4,4.4-12.81,0-1.44,0-9.85,0-9.85,0-10.71-7.51-11-10.76-11a19.66,19.66,0,0,0-10,2.54c1.58,1.57,2.63,4,2.63,7.5V35c0,9.41.29,12.81,4.4,12.81v.48H64.39v-.48c4.11,0,4.4-3.4,4.4-12.81,0-1.44-.05-9.85-.05-9.85,0-10.71-7.5-11-10.75-11a23,23,0,0,0-7.42,1.39V35c0,9.41.29,12.81,4.4,12.81v.48Z"/><path class="cls-1" d="M123.18,14.1c7.65,0,10,7.84,7.07,17.45S120,49,112.33,49s-10.09-7.84-7.08-17.45S115.53,14.1,123.18,14.1Zm-7.41,31.56c4.3,0,8.8-6.31,9.89-14.15s-1.52-14.16-5.88-14.16-8.74,6.36-9.84,14.16S111.42,45.66,115.77,45.66Z"/><path class="cls-1" d="M143.3,41.41V.32l-8.68,2.89V4c3,.08,3.25,1,3.25,3.55v33.9c0,3.06-.25,5.63-3.25,5.83v.65h11.93v-.65C143.55,47,143.3,44.47,143.3,41.41Z"/><path class="cls-2" d="M78,104.87s.48,0,.76,0c4.69,0,8.16-5.2,9.38-12.62L90.34,61c0-9.42.43-12.81-3.68-12.81v-.48H99.57v.48c-4.11,0-5.12,3.39-5.12,12.81L92.29,92.2c-1.21,8.21-6.51,13.34-12.68,13.34a8.55,8.55,0,0,1-1.67-.19Z"/><path class="cls-2" d="M124.67,66.62c0-3.87-4.49-5.45-8.37-5.45-4.54,0-8.94,1.58-8.94,5.55,0,1.82,1.48,2.63,1.91,2.2.48,1.43-1.09,2.77-2.67,2.77a3.58,3.58,0,0,1-3.44-3.82c0-4.74,5.64-7.17,13.14-7.17,5.4,0,12.43,2.24,12.43,6,0,7.7-24,.72-24,19.41,0,5,3.15,8.75,7.84,8.75,5.16,0,11.71-5.31,11.71-19.22,0-1-.1-2.15-.81-2.34,0-.29.52-.67,1.29-.67,3.49,0,3.92,3.63,3.92,7.46,0,4.25,0,5,0,10,0,4,2.35,4.87,3.64,4.87v.48h-3.4c-2.53,0-4.54-2.34-4.54-5.93V81.4c-1.72,8.22-4.87,15.06-13.24,15.06a10.29,10.29,0,0,1-10.66-10.62C100.48,69,124.67,74.51,124.67,66.62Z"/><path class="cls-1" d="M136.92,54.45c2.4-.79,3.1-1.35,3.88-4.19.09-.3.39-.3.48,0,.79,2.84,1.44,3.49,3.88,4.19.31.09.31.26,0,.35-2.4.78-3.27,1.26-3.88,4.23,0,.22-.43.22-.48,0-.78-2.92-1.48-3.45-3.88-4.23C136.61,54.71,136.61,54.54,136.92,54.45Z"/><rect class="cls-2" x="139.06" y="62.42" width="3.82" height="33.08"/><path class="cls-1" d="M179.83,86.29a.61.61,0,0,1,0,.55c-1.51,3.93-3.81,9.86-9.1,9.86a3.31,3.31,0,0,1-2.87-1.36c-1.37-1.93-1-5.57-.07-8.32,1.71-4.91,4.25-11.22,6.29-16.29l.5-1.23c.84-2.11,1.53-4.1.76-5.25a2,2,0,0,0-1.77-.77c-6.71,0-12.24,11.65-14.31,16.68-.34,1-.69,2-1,3L153.91,96H148l9.74-28.43v0l.11-.28c.52-1.39.93-2.78.39-3.56a1.18,1.18,0,0,0-1-.49c-1.48,0-2.93,1.58-4.57,5-.41.82-.79,1.71-1.12,2.49L151,71.87c-.22.47-.59.6-.74.38a.61.61,0,0,1,0-.55c1.51-3.93,3.8-9.86,9.1-9.86A3.35,3.35,0,0,1,162,63c1,1.2,1.35,3.4.91,6l-.39,2.29,1.14-2c2.61-4.65,6.55-7.42,10.54-7.42A5.66,5.66,0,0,1,179,64c1.29,1.81,1.37,4.55.21,7.92L172.3,91.08c-.78,1.9-.94,3.1-.49,3.77a1.19,1.19,0,0,0,1.05.51c1.48,0,2.93-1.58,4.57-5,.41-.83.79-1.72,1.13-2.5.18-.43.36-.85.53-1.22S179.68,86.07,179.83,86.29Z"/></g></g></svg>